<?xml version="1.0" standalone="no"?>
<!DOCTYPE svg PUBLIC "-//W3C//DTD SVG 20010904//EN"
 "http://www.w3.org/TR/2001/REC-SVG-20010904/DTD/svg10.dtd">
<svg version="1.0" xmlns="http://www.w3.org/2000/svg"
 width="612.000000pt" height="612.000000pt" viewBox="0 0 612.000000 612.000000"
 preserveAspectRatio="xMidYMid meet">

<g transform="translate(0.000000,612.000000) scale(0.100000,-0.100000)"
fill="#000000" stroke="none">
<path d="M4815 4885 c-163 -30 -315 -114 -433 -240 -39 -41 -72 -75 -74 -75
-2 0 -55 29 -116 64 -195 111 -426 192 -667 232 -138 24 -452 24 -590 0 -135
-23 -281 -61 -392 -104 l-93 -35 55 -58 c98 -107 167 -228 202 -359 24 -89 24
-281 0 -370 -82 -306 -332 -537 -674 -622 -71 -18 -117 -22 -233 -22 -161 0
-262 19 -391 73 -79 33 -71 42 -94 -99 -45 -283 -22 -592 67 -869 32 -102 87
-231 97 -231 3 0 45 20 93 44 125 62 207 81 353 80 131 0 204 -15 311 -64 364
-165 558 -582 453 -975 -11 -44 -22 -87 -22 -95 -2 -17 79 -42 243 -72 152
-28 465 -30 615 -4 242 41 473 121 667 232 62 36 116 66 121 67 4 1 18 -24 31
-56 84 -203 260 -366 467 -432 175 -55 332 -55 507 0 368 117 589 500 496 862
-77 299 -334 513 -668 555 l-93 12 28 86 c84 261 109 585 65 852 l-12 77 86
31 c236 84 420 285 492 536 32 112 32 296 0 408 -114 399 -499 644 -897 571z"/>
</g>
</svg>
